# xmcd CD database file
#
# Track frame offsets:
#	150
#	15463
#	28771
#	43264
#	54856
#	70602
#	84168
#	99520
#	111932
#	130911
#	144642
#
# Disc length: 2138 seconds
#
# Revision: 7
# Processed by: cddbd v1.5.1PL0 Copyright (c) Steve Scherf et al.
# Submitted via: Feurio! 1.68 - http://www.feurio.com
#
DISCID=8a08580b
DTITLE=Devilyn - Artefact
DYEAR=2001
DGENRE=Death Metal
TTITLE0=Soul Snatcher
TTITLE1=Aryman's Grace
TTITLE2=Psalm
TTITLE3=Contempt
TTITLE4=Expression Of Horror
TTITLE5=Deceived Conscience
TTITLE6=Kingdom Of The Blind
TTITLE7=Senses Scarity
TTITLE8=Fire - Step Follow Me
TTITLE9=Prophet's Crux
TTITLE10=Hatched Out Of...
EXTD=
EXTT0=
EXTT1=
EXTT2=
EXTT3=
EXTT4=
EXTT5=
EXTT6=
EXTT7=
EXTT8=
EXTT9=
EXTT10=
PLAYORDER=
